<svg version="1.2" baseProfile="tiny-ps" xmlns="http://www.w3.org/2000/svg" viewBox="0 0 900 900" width="900" height="900">
	<title>Jal Smruti Logo-ai</title>
	<defs>
		<linearGradient id="grd1" gradientUnits="userSpaceOnUse"  x1="708.435" y1="39.8" x2="708.435" y2="473.758">
			<stop offset="0" stop-color="#00b0e5"  />
			<stop offset="0.98" stop-color="#0978a6"  />
		</linearGradient>
	</defs>
	<style>
		tspan { white-space:pre }
		.shp0 { fill: url(#grd1) } 
		.shp1 { fill: #eff5f8 } 
		.shp2 { fill: #add45f } 
		.shp3 { fill: #ececed } 
	</style>
	<g id="Layer 1">
		<path id="&lt;Path&gt;" class="shp0" d="M193.05 473.76C201.05 453.57 213.96 423.81 233.33 389.69C249.1 361.91 261.81 344.17 308.81 281.82C385.55 180 400.8 162.13 419.88 123.44C436.77 89.17 446.48 59.25 451.96 39.8C461.09 64.72 472.79 91.78 487.04 120.98C493.72 134.67 511.13 166.47 558.47 231.76C608.92 301.35 618.82 305.5 646.27 347.62C675.23 392.05 693.39 432.19 704.43 460.05C652.39 416.86 622.49 395.27 614.74 395.27L581.52 418.52L478.53 340.45L373.89 418.52L314.09 405.23C247.94 448.98 207.6 471.83 193.05 473.76Z" />
		<path id="&lt;Path&gt;" class="shp1" d="M185.36 498.69L193.05 473.76C216.07 466.97 256.42 444.12 314.09 405.23L373.89 418.52L478.53 340.45L581.52 418.52L614.74 395.27C619.76 394.21 646 412.8 693.46 451.06L701.22 477.55C645.92 435.26 617.18 414.12 615.01 414.12L575.44 440.14L475.14 358.82L371.59 438.52L313.04 423.88L185.36 498.69Z" />
		<path id="&lt;Path&gt;" class="shp2" d="M178.21 538.51L319.53 442.86L354.6 458.05L208.12 580.8L478.39 389.97L677.48 542.63L593.92 455.98L612.49 442.86L723.89 525.1C743.15 656.45 693.64 751.01 575.35 808.77C513.46 845.22 445.38 851.07 371.11 826.31C513.16 790.22 597.89 757.61 625.29 728.47C656.17 706.96 633.45 691.17 557.12 681.11C372.57 671.75 309.25 652.67 367.19 623.87C467.45 592.3 479.07 574.61 402.05 570.79C441.6 577.73 432.58 589.18 374.99 605.14C298.67 628.04 287.75 646.42 342.21 660.3C396.68 673.13 447.5 682.67 494.68 688.92C560.59 703.49 551.57 720.31 467.62 739.39C354.41 760.97 280.17 771.55 244.9 771.14C185.18 723.06 162.95 645.51 178.21 538.51Z" />
		<path id="&lt;Path&gt;" class="shp3" d="M576.12 671.48C587.33 673.06 622.1 678.34 637.16 697.79C642.55 704.74 642.44 709.67 642.16 711.83C640.76 722.51 626.98 727.84 625.29 728.47C633.41 721.52 634.47 716.4 634.17 713.22C632.55 695.84 585.93 687.03 570.24 684.06C552.3 680.67 544.25 680.95 517.48 679.05C491.64 677.23 457.35 674.71 420.32 667.44C392.36 661.96 350.51 653.75 349.8 640.31C349.46 633.89 358.59 628.06 367.19 623.87C364.26 626.44 361.06 630.1 361.51 634.02C362.52 642.63 380.63 647.69 408.71 652.9C450.72 660.71 484.73 663.25 496.65 664.1C525.97 666.2 545.39 667.12 576.12 671.48Z" />
		<path id="&lt;Path&gt;" class="shp3" d="M178.21 538.51C177.59 633.2 201.6 705.19 250.26 754.5C259.64 754.04 278.54 753.09 302.4 751.85C302.4 751.85 451.72 744.13 513.81 706.88C515.09 706.11 518.63 703.99 518.65 701.09C518.68 697.9 514.43 695.39 512.05 694.2C519.02 696.85 531.44 702.43 531.58 709.84C531.75 718.67 514.38 725.6 503.22 729.68C412.74 762.78 292.3 769 266.77 770.19C256.99 770.64 249.15 770.97 244.9 771.14C184.52 720.38 162.29 642.84 178.21 538.51Z" />
		<path id="&lt;Path&gt;" class="shp3" d="M406.11 835.24L366.36 844.29C428.84 869.78 497.55 864.79 572.52 829.3C659.38 789.1 708.33 719.32 719.38 619.98C715.17 640.09 694.59 727.25 610.37 787.54C520.65 851.77 424.75 838.25 406.11 835.24Z" />
	</g>
</svg>