<svg version="1.2" baseProfile="tiny-ps" xmlns="http://www.w3.org/2000/svg" viewBox="0 0 2000 900" width="200" height="90">
	<title>Jal Smruti Logo-ai</title>
	<defs>
		<linearGradient id="grd1" gradientUnits="userSpaceOnUse"  x1="568.435" y1="39.8" x2="568.435" y2="473.758">
			<stop offset="0" stop-color="#00b0e5"  />
			<stop offset="0.98" stop-color="#0978a6"  />
		</linearGradient>
	</defs>
	<style>
		tspan { white-space:pre }
		.shp0 { fill: url(#grd1) } 
		.shp1 { fill: #eff5f8 } 
		.shp2 { fill: #add45f } 
		.shp3 { fill: #ececed } 
	</style>
	<g id="Layer 1">
		<path id="&lt;Path&gt;" class="shp0" d="M53.05 473.76C61.05 453.57 73.96 423.81 93.33 389.69C109.1 361.91 121.81 344.17 168.81 281.82C245.55 180 260.8 162.13 279.88 123.44C296.77 89.17 306.48 59.25 311.96 39.8C321.09 64.72 332.79 91.78 347.04 120.98C353.72 134.67 371.13 166.47 418.47 231.76C468.92 301.35 478.82 305.5 506.27 347.62C535.23 392.05 553.39 432.19 564.43 460.05C512.39 416.86 482.49 395.27 474.74 395.27L441.52 418.52L338.53 340.45L233.89 418.52L174.09 405.23C107.94 448.98 67.6 471.83 53.05 473.76Z" />
		<path id="&lt;Path&gt;" class="shp1" d="M45.36 498.69L53.05 473.76C76.07 466.97 116.42 444.12 174.09 405.23L233.89 418.52L338.53 340.45L441.52 418.52L474.74 395.27C479.76 394.21 506 412.8 553.46 451.06L561.22 477.55C505.92 435.26 477.18 414.12 475.01 414.12L435.44 440.14L335.14 358.82L231.59 438.52L173.04 423.88L45.36 498.69Z" />
		<path id="&lt;Path&gt;" class="shp2" d="M38.21 538.51L179.53 442.86L214.6 458.05L68.12 580.8L338.39 389.97L537.48 542.63L453.92 455.98L472.49 442.86L583.89 525.1C603.15 656.45 553.64 751.01 435.35 808.77C373.46 845.22 305.38 851.07 231.11 826.31C373.16 790.22 457.89 757.61 485.29 728.47C516.17 706.96 493.45 691.17 417.12 681.11C232.57 671.75 169.25 652.67 227.19 623.87C327.45 592.3 339.07 574.61 262.05 570.79C301.6 577.73 292.58 589.18 234.99 605.14C158.67 628.04 147.75 646.42 202.21 660.3C256.68 673.13 307.5 682.67 354.68 688.92C420.59 703.49 411.57 720.31 327.62 739.39C214.41 760.97 140.17 771.55 104.9 771.14C45.18 723.06 22.95 645.51 38.21 538.51Z" />
		<path id="&lt;Path&gt;" class="shp3" d="M436.12 671.48C447.33 673.06 482.1 678.34 497.16 697.79C502.55 704.74 502.44 709.67 502.16 711.83C500.76 722.51 486.98 727.84 485.29 728.47C493.41 721.52 494.47 716.4 494.17 713.22C492.55 695.84 445.93 687.03 430.24 684.06C412.3 680.67 404.25 680.95 377.48 679.05C351.64 677.23 317.35 674.71 280.32 667.44C252.36 661.96 210.51 653.75 209.8 640.31C209.46 633.89 218.59 628.06 227.19 623.87C224.26 626.44 221.06 630.1 221.51 634.02C222.52 642.63 240.63 647.69 268.71 652.9C310.72 660.71 344.73 663.25 356.65 664.1C385.97 666.2 405.39 667.12 436.12 671.48Z" />
		<path id="&lt;Path&gt;" class="shp3" d="M38.21 538.51C37.59 633.2 61.6 705.19 110.26 754.5C119.64 754.04 138.54 753.09 162.4 751.85C162.4 751.85 311.72 744.13 373.81 706.88C375.09 706.11 378.63 703.99 378.65 701.09C378.68 697.9 374.43 695.39 372.05 694.2C379.02 696.85 391.44 702.43 391.58 709.84C391.75 718.67 374.38 725.6 363.22 729.68C272.74 762.78 152.3 769 126.77 770.19C116.99 770.64 109.15 770.97 104.9 771.14C44.52 720.38 22.29 642.84 38.21 538.51Z" />
		<path id="&lt;Path&gt;" class="shp3" d="M266.11 835.24L226.36 844.29C288.84 869.78 357.55 864.79 432.52 829.3C519.38 789.1 568.33 719.32 579.38 619.98C575.17 640.09 554.59 727.25 470.37 787.54C380.65 851.77 284.75 838.25 266.11 835.24Z" />
		<path id="Jal Smruti " fill="#0a5669" aria-label="Jal Smruti"  d="M608.81 374.66Q599.65 374.66 589.28 370.76Q579.02 366.73 570.72 359.53Q564.74 354.4 561.69 347.2Q558.76 339.99 558.76 332.18Q558.76 319.36 565.23 312.16Q571.82 304.96 584.03 304.96Q588.42 304.96 591.84 306.42Q595.38 307.89 597.21 310.21Q599.17 312.41 599.17 314.6L591.96 360.75Q599.29 363.8 607.71 363.8Q620.77 363.8 626.88 353.79Q633.1 343.66 633.1 321.44L633.22 220.37Q633.22 215.48 629.32 213.04Q625.41 210.6 620.41 209.87Q615.52 209.01 608.08 208.52Q605.39 208.28 604.54 207.55Q603.68 206.69 603.68 204.01Q603.68 202.18 604.78 199.98Q606 197.78 607.83 197.78L693.89 197.78Q695.72 197.78 696.82 199.98Q698.04 202.18 698.04 204.01Q698.04 206.08 697.07 207.3Q696.21 208.4 694.01 208.52Q684.13 208.89 678.88 210.72Q673.75 212.55 673.75 216.34L673.75 317.41Q673.75 339.63 663.86 352.45Q654.1 365.14 639.57 369.9Q625.17 374.66 608.81 374.66ZM714.64 341.46Q714.64 326.44 726.12 317.41Q737.72 308.38 754.2 304.35Q770.8 300.2 791.67 298L791.67 277.86Q791.67 267 787.03 262.97Q782.52 258.82 773.48 258.82Q762.98 258.82 759.57 260.89L740.16 293.49Q731.49 293.49 725.88 288.72Q720.38 283.84 720.38 276.27Q720.38 266.51 729.66 260.04Q739.06 253.45 752.49 250.39Q766.04 247.22 778.73 247.22Q796.8 247.22 808.64 251.62Q820.48 255.89 826.09 263.58Q831.71 271.15 831.71 281.16L831.71 346.83Q831.71 351.59 833.05 354.89Q834.4 358.06 836.35 358.06Q837.81 358.06 843.06 356.96L846.24 356.47Q848.19 356.47 849.04 358.67Q849.9 360.75 849.9 363.43Q849.9 365.02 849.17 365.63Q847.21 366.97 842.09 368.92Q837.08 370.88 829.27 372.46Q821.58 374.05 812.54 374.05Q803.39 374.05 799.24 370.88Q795.09 367.7 794.48 364.77Q793.99 361.84 793.99 357.69L793.99 357.33Q786.18 365.51 775.07 369.78Q764.08 373.93 751.02 373.93Q742.84 373.93 734.42 370.51Q726 367.09 720.26 359.77Q714.64 352.45 714.64 341.46ZM756.03 340.24Q756.03 346.83 760.18 351.59Q764.45 356.35 772.02 356.35Q784.1 356.35 791.67 347.07L791.67 307.77Q781.29 309.35 773.73 312.16Q766.28 314.97 761.15 321.68Q756.03 328.4 756.03 340.24ZM861.62 371Q859.66 371 858.57 369.41Q857.47 367.7 857.47 366Q857.47 363.92 858.32 362.82Q859.3 361.6 861.5 361.48Q867.23 360.99 871.38 359.53Q875.53 357.94 875.53 354.89L875.66 208.89Q875.66 203.15 873.34 200.22Q871.02 197.29 867.84 196.32Q864.67 195.34 859.66 194.73Q855.51 194.12 855.03 194Q853.56 193.39 852.83 192.29Q852.1 191.19 852.1 189.12Q852.1 187.41 852.95 185.7Q853.8 183.87 855.03 183.74Q881.39 182.04 909.35 182.04Q910.69 182.04 911.79 183.26Q913.01 184.35 913.01 186.92L913.01 350.86Q913.01 355.13 915.21 357.45Q917.53 359.65 920.46 360.38Q923.38 360.99 927.9 361.48Q930.59 361.72 931.44 362.58Q932.3 363.31 932.3 366Q932.3 367.7 931.2 369.41Q930.1 371 928.15 371L861.62 371ZM1087.81 374.66Q1076.09 374.66 1066.94 372.34Q1057.78 370.02 1053.02 368.19Q1048.38 366.36 1047.41 366Q1045.46 365.26 1042.77 363.92Q1042.4 363.8 1041.18 363.19Q1039.96 362.58 1038.99 362.58Q1037.64 362.58 1036.67 363.31Q1035.81 364.04 1034.59 365.38Q1032.15 368.19 1029.95 369.29Q1027.88 370.39 1025.56 370.39Q1022.38 370.39 1020.55 368.8Q1018.72 367.09 1018.84 364.53Q1019.09 361.84 1019.09 359.04L1019.09 354.15Q1019.09 345.98 1018.48 337.67Q1017.99 329.37 1017.87 328.03Q1017.26 320.46 1017.26 317.66Q1017.26 309.11 1024.34 309.11Q1030.2 309.11 1031.66 314.24Q1033 319.36 1034.83 324.37Q1036.67 329.37 1039.96 335.11Q1047.41 347.93 1060.47 355.74Q1073.53 363.55 1088.79 363.55Q1095.87 363.55 1101.97 361.11Q1108.08 358.67 1111.74 353.79Q1115.52 348.78 1115.52 341.7Q1115.52 331.94 1110.15 324.74Q1104.78 317.41 1097.09 312.41Q1089.52 307.28 1076.58 300.57L1068.89 296.54Q1053.27 288.24 1043.99 282.13Q1034.83 275.91 1027.88 266.02Q1021.04 256.13 1021.04 242.46Q1021.04 228.18 1028.85 217.19Q1036.79 206.21 1050.83 200.22Q1064.99 194.24 1083.05 194.24Q1092.45 194.24 1098.8 195.46Q1105.27 196.68 1111.37 198.76Q1111.98 199 1114.79 199.86Q1117.72 200.59 1119.92 200.59Q1121.75 200.59 1122.6 200.1Q1123.58 199.61 1124.56 198.64Q1125.66 197.54 1126.39 197.05Q1127.73 196.2 1129.81 196.2Q1132.98 196.2 1135.67 197.66Q1138.47 199 1138.47 200.83Q1138.59 207.06 1139.45 216.21Q1140.3 225.37 1140.55 228.06Q1141.52 236.11 1141.52 238.43Q1141.52 242.22 1139.33 243.92Q1137.25 245.51 1133.83 245.51Q1129.44 245.51 1127.73 242.7Q1132.37 251.98 1126.39 236.84Q1120.53 221.71 1111.01 213.41Q1101.61 204.98 1084.88 204.98Q1072.31 204.98 1063.64 210.11Q1055.1 215.12 1055.1 226.1Q1055.1 235.38 1061.32 242.95Q1067.55 250.39 1076.46 255.89Q1085.49 261.38 1099.41 268.34Q1115.77 276.4 1126.51 283.6Q1137.37 290.68 1144.7 300.81Q1152.14 310.94 1152.14 324.37Q1152.14 339.51 1143.36 350.98Q1134.69 362.33 1119.92 368.56Q1105.27 374.66 1087.81 374.66ZM1177.17 371Q1175.22 371 1174.12 369.41Q1173.02 367.7 1173.02 366Q1173.02 363.92 1173.87 362.82Q1174.73 361.72 1177.05 361.48Q1182.54 360.99 1186.2 359.53Q1189.99 357.94 1189.99 354.89L1189.99 276.03Q1189.99 270.41 1187.91 267.48Q1185.84 264.55 1183.03 263.58Q1180.34 262.6 1175.95 261.99Q1172.41 261.5 1171.8 261.26Q1170.33 260.65 1169.6 259.55Q1168.87 258.45 1168.87 256.38Q1168.87 254.67 1169.6 252.96Q1170.46 251.13 1171.8 251Q1205.86 249.54 1223.68 249.3Q1224.9 249.3 1226 250.39Q1227.1 251.49 1227.34 254.18L1227.34 267.85Q1230.51 264.43 1238.2 259.55Q1246.02 254.67 1256.64 251Q1267.26 247.22 1278.24 247.22Q1289.84 247.22 1298.02 251.37Q1306.2 255.52 1309.98 266.02Q1319.26 259.06 1332.81 253.2Q1346.48 247.22 1362.96 247.22Q1373.09 247.22 1380.29 250.27Q1387.5 253.2 1391.77 261.26Q1396.16 269.19 1396.16 283.6L1396.16 350.86Q1396.16 356.96 1399.58 358.92Q1403.12 360.75 1406.78 361.11Q1410.57 361.36 1411.67 361.48Q1413.86 361.72 1414.72 362.7Q1415.69 363.55 1415.69 366Q1415.69 367.7 1414.6 369.41Q1413.5 371 1411.54 371L1345.99 371Q1344.04 371 1342.94 369.41Q1341.84 367.7 1341.84 366Q1341.84 363.92 1342.57 362.82Q1343.43 361.72 1345.63 361.48Q1350.02 361.11 1353.68 359.4Q1357.34 357.57 1357.34 354.89L1357.34 284.21Q1357.34 279.45 1356.61 275.66Q1355.88 271.88 1352.58 268.83Q1349.41 265.78 1342.82 265.78Q1327.68 265.78 1312.3 278.35Q1312.54 281.77 1312.54 283.6L1312.54 350.86Q1312.54 357.08 1315.35 358.92Q1318.16 360.75 1321.46 361.11Q1324.87 361.36 1325.85 361.48Q1328.05 361.72 1328.9 362.7Q1329.88 363.55 1329.88 366Q1329.88 367.7 1328.78 369.41Q1327.68 371 1325.73 371L1262.62 371Q1260.67 371 1259.57 369.41Q1258.47 367.7 1258.47 366Q1258.47 363.92 1259.2 362.82Q1260.05 361.72 1262.25 361.48Q1266.77 361.11 1270.8 359.4Q1274.95 357.57 1274.95 354.89L1274.95 284.21Q1274.95 277.13 1271.9 271.51Q1268.84 265.78 1259.32 265.78Q1252.73 265.78 1247.48 267.73Q1242.35 269.68 1238.81 272.37Q1235.27 274.93 1230.64 279.08Q1230.03 279.81 1228.56 281.03L1228.56 350.86Q1228.56 355.25 1230.27 357.57Q1231.98 359.77 1234.54 360.5Q1237.11 361.11 1241.01 361.48Q1243.7 361.72 1244.55 362.58Q1245.41 363.31 1245.41 366Q1245.41 367.58 1244.19 369.29Q1243.09 371 1241.26 371L1177.17 371ZM1429.85 371Q1427.9 371 1426.8 369.41Q1425.7 367.7 1425.7 366Q1425.7 363.92 1426.56 362.82Q1427.41 361.72 1429.73 361.48Q1435.71 360.99 1439.74 359.53Q1443.89 357.94 1443.89 354.89L1443.89 276.03Q1443.89 270.29 1441.82 267.24Q1439.74 264.19 1436.93 263.21Q1434.13 262.24 1429.61 261.5Q1429 261.38 1427.78 261.26Q1426.56 261.01 1425.7 260.77Q1424.24 260.16 1423.51 259.06Q1422.77 257.96 1422.77 255.89Q1422.77 254.18 1423.63 252.47Q1424.48 250.64 1425.7 250.52Q1447.8 249.66 1473.8 249.3L1477.34 249.3Q1478.56 249.3 1479.66 250.39Q1480.76 251.49 1481 254.18L1481 278.96Q1484.54 271.02 1491.13 263.82Q1497.85 256.5 1506.64 251.86Q1515.43 247.22 1524.83 247.22Q1535.32 247.22 1540.33 253.69Q1545.33 260.04 1545.33 269.44Q1545.33 275.42 1542.53 280.79Q1539.72 286.16 1535.45 289.46Q1531.29 292.63 1527.39 292.63L1509.57 269.32Q1501.51 269.32 1494.19 277.37Q1486.86 285.31 1482.47 296.29L1482.47 350.86Q1482.47 354.89 1485.15 356.96Q1487.96 359.04 1491.87 359.89Q1495.77 360.62 1502 361.23L1504.56 361.48Q1507.25 361.72 1508.1 362.58Q1508.96 363.31 1508.96 366Q1508.96 367.7 1507.86 369.41Q1506.76 371 1504.81 371L1429.85 371ZM1611.86 374.3Q1598.92 374.3 1590.01 371.37Q1581.22 368.44 1575.97 360.5Q1570.85 352.45 1570.85 338.04L1570.85 271.02Q1570.85 266.14 1568.89 263.7Q1566.94 261.14 1564.25 260.4Q1561.57 259.55 1557.42 259.18Q1554.73 258.94 1553.88 258.21Q1553.02 257.35 1553.02 254.67Q1553.02 253.08 1554.12 251.37Q1555.34 249.66 1557.17 249.66L1604.9 249.66Q1609.42 249.66 1609.42 254.06L1609.42 326.93Q1609.42 355.5 1622.97 355.5Q1633.1 355.5 1640.43 352.08Q1647.87 348.66 1654.1 341.95L1654.1 271.02Q1654.1 266.14 1651.53 263.7Q1649.09 261.14 1645.55 260.4Q1642.13 259.55 1636.76 259.18Q1634.08 258.94 1633.22 258.21Q1632.37 257.35 1632.37 254.67Q1632.37 252.96 1633.47 251.37Q1634.57 249.66 1636.52 249.66L1688.16 249.66Q1692.67 249.66 1692.67 254.06L1692.67 343.9Q1692.67 351.59 1694.01 354.15Q1695.48 356.6 1698.04 356.6Q1702.44 356.6 1704.39 355.62Q1706.22 354.64 1707.69 357.94Q1709.15 361.23 1709.15 364.41Q1709.15 366.12 1708.54 366.48Q1704.39 369.17 1695.6 371.61Q1686.93 374.05 1673.51 374.05Q1662.89 374.05 1659.47 367.58Q1656.05 360.99 1656.17 353.06Q1652.27 358.67 1645.06 363.55Q1637.98 368.44 1629.2 371.37Q1620.53 374.3 1611.86 374.3ZM1776.66 374.66Q1759.08 374.66 1748.58 367.83Q1738.2 360.99 1738.2 343.78L1738.2 262.97L1725.14 262.97Q1723.92 262.85 1723.07 261.14Q1722.21 259.31 1722.21 257.6Q1722.21 255.4 1722.95 253.93Q1723.8 252.47 1725.26 251.98L1740.52 247.46Q1743.33 246.85 1746.87 242.58Q1750.53 238.19 1753.71 231.35Q1756.88 224.39 1758.71 216.21Q1759.81 211.45 1768.11 211.45Q1777.39 211.45 1777.39 215.6L1777.39 249.66L1804.37 249.66Q1805.71 249.78 1806.44 251Q1807.3 252.23 1807.3 253.81Q1807.3 257.6 1806.08 260.16Q1804.98 262.72 1803.63 262.72L1777.39 262.72L1777.39 332.91Q1777.39 343.29 1778.37 348.78Q1779.46 354.15 1781.78 356.23Q1784.22 358.18 1788.74 358.18Q1792.77 358.18 1798.26 356.6Q1803.76 355.01 1808.39 352.69Q1809.13 352.32 1810.47 354.15Q1811.81 355.99 1812.54 358.18Q1813.28 360.26 1812.54 360.75Q1809.49 364.04 1803.02 367.34Q1796.68 370.51 1789.35 372.59Q1782.15 374.66 1776.66 374.66ZM1828.9 371Q1826.95 371 1825.85 369.41Q1824.75 367.7 1824.75 366Q1824.75 363.92 1825.61 362.82Q1826.58 361.6 1828.78 361.48Q1834.52 360.99 1838.67 359.53Q1842.82 357.94 1842.82 354.89L1842.94 276.03Q1842.94 270.41 1840.87 267.48Q1838.91 264.55 1836.1 263.58Q1833.42 262.6 1829.02 261.99Q1825.24 261.38 1824.75 261.26Q1823.29 260.65 1822.55 259.55Q1821.82 258.45 1821.82 256.38Q1821.82 254.67 1822.55 252.96Q1823.41 251.13 1824.75 251Q1851.85 249.3 1877.85 249.3Q1879.2 249.3 1880.29 250.52Q1881.51 251.62 1881.51 254.18L1881.51 350.86Q1881.51 355.13 1883.71 357.45Q1886.03 359.65 1888.96 360.38Q1891.89 360.99 1896.41 361.48Q1899.09 361.72 1899.95 362.58Q1900.8 363.31 1900.8 366Q1900.8 367.58 1899.58 369.29Q1898.48 371 1896.65 371L1828.9 371ZM1861.37 228.18Q1855.03 228.18 1849.78 225.37Q1844.53 222.44 1841.48 217.44Q1838.42 212.31 1838.42 205.84Q1838.42 199.37 1841.48 194.24Q1844.53 189.12 1849.78 186.31Q1855.03 183.38 1861.37 183.38Q1867.6 183.38 1872.85 186.31Q1878.1 189.12 1881.15 194.24Q1884.32 199.37 1884.32 205.84Q1884.32 212.31 1881.15 217.44Q1878.1 222.44 1872.85 225.37Q1867.6 228.18 1861.37 228.18Z" />
		<path id=" जल स्मृति " fill="#0a5669" aria-label="
जल स्मृति"  d="M903.85 673L938.76 673L938.76 539.21L967.33 539.21L967.33 515.65L753.34 515.65L753.34 539.21L903.85 539.21L903.85 562.77L811.08 562.77L811.08 587.31C832.32 591.82 844.16 605.98 844.16 618.43C844.16 628.08 837.44 634.43 826.82 634.43C814.25 634.43 797.53 625.27 776.41 594.63L759.69 618.07C779.95 649.07 804.85 665.19 830.97 665.19C859.17 665.19 876.02 646.39 876.02 624.29C876.02 612.21 871.99 601.1 863.69 591.58L903.85 591.58ZM1031.41 660.43C1010.54 641.26 1004.07 629.18 1004.07 615.87C1004.07 603.42 1013.1 592.56 1027.14 592.56C1037.15 592.56 1046.31 596.34 1055.71 605.13L1033.73 623.93L1055.46 645.29L1104.17 605.13L1104.17 673L1139.08 673L1139.08 539.21L1167.64 539.21L1167.64 515.65L956.83 515.65L956.83 539.21L1104.17 539.21L1104.17 563.63L1078.41 585.72C1062.3 570.58 1044.35 561.92 1021.16 561.92C989.91 561.92 970.13 583.28 970.13 609.77C970.13 633.82 983.07 656.28 1004.56 675.56ZM1326.09 662.75L1288.25 612.09C1289.84 611.23 1291.42 610.38 1292.89 609.4C1309.25 617.09 1331.58 622.58 1352.95 622.58C1364.67 622.58 1375.16 621.24 1383.95 618.92L1377.85 589.99C1369.3 592.56 1359.17 593.9 1350.02 593.9C1338.54 593.9 1324.63 591.95 1313.15 588.16C1317.3 580.35 1319.38 571.68 1319.38 562.53L1319.38 539.21L1350.87 539.21L1350.87 515.65L1225.26 515.65L1225.26 539.21L1284.47 539.21L1284.47 557.16C1284.47 570.58 1280.32 579.01 1270.79 584.62L1264.2 575.71C1259.93 570.09 1255.05 566.43 1248.21 566.43C1238.93 566.43 1233.44 573.15 1233.44 580.84C1233.44 587.06 1236 592.43 1241.5 599.64L1301.19 678.86ZM1449.38 539.21L1449.38 589.75L1404.95 589.75L1404.95 539.21ZM1449.38 673L1484.29 673L1484.29 539.21L1512.86 539.21L1512.86 515.65L1339.15 515.65L1339.15 539.21L1370.04 539.21L1370.04 589.75L1363.69 589.75C1354.53 589.75 1350.14 594.88 1350.14 602.08C1350.14 610.99 1356.24 621.85 1364.3 629.79C1372.72 638.33 1384.44 643.83 1392.74 643.83C1401.53 643.83 1404.95 638.33 1404.95 629.3L1404.95 618.43L1449.38 618.43ZM1491.5 712.79C1481.37 716.82 1473.67 718.78 1464.76 718.78C1453.53 718.78 1446.82 713.28 1446.82 705.71C1446.82 696.68 1454.14 689.24 1469.65 689.24L1484.17 689.24L1484.17 668.97C1476.6 668.36 1470.99 668.12 1463.91 668.12C1435.59 668.12 1418.38 683.01 1418.38 703.03C1418.38 726.83 1439.98 740.75 1465.37 740.75C1477.09 740.75 1486.61 738.92 1495.53 735.62ZM1528.73 673L1563.64 673L1563.64 539.21L1592.33 539.21L1592.33 515.65L1563.64 515.65L1563.64 510.89C1563.64 494.78 1577.19 479.64 1613.81 479.64C1637.98 479.64 1660.81 485.5 1684.49 496.36L1691.33 470C1667.64 457.91 1639.57 450.1 1606.24 450.1C1549.24 450.1 1528.73 478.66 1528.73 508.45L1528.73 515.65L1505.54 515.65L1505.54 539.21L1528.73 539.21ZM1624.8 676.17L1653.85 667.38C1640.79 646.75 1634.32 631.5 1634.32 618.19C1634.32 603.54 1642.74 592.07 1665.08 592.07L1686.81 592.07L1686.81 673L1721.72 673L1721.72 539.21L1750.29 539.21L1750.29 515.65L1585 515.65L1585 539.21L1686.81 539.21L1686.81 562.77L1657.02 562.77C1617.96 562.77 1601.36 583.16 1601.12 609.52C1600.87 629.05 1609.42 652.74 1624.8 676.17Z" />
	</g>
</svg>